<svg xmlns="http://www.w3.org/2000/svg" viewBox="0 0 1400 480" preserveAspectRatio="xMidYMid meet">
  <style>
    .bg { fill: #f7f8fb; }
    .title { font: 700 28px -apple-system, BlinkMacSystemFont, "Segoe UI", sans-serif; fill: #172033; }
    .meta { font: 16px -apple-system, BlinkMacSystemFont, "Segoe UI", sans-serif; fill: #344054; }
    .axis { stroke: #98a2b3; stroke-width: 1; }
    .grid { stroke: #d0d5dd; stroke-width: 1; stroke-dasharray: 4 6; }
    .wave { fill: none; stroke: #0057d9; stroke-width: 4; stroke-linejoin: round; stroke-linecap: round; }
    .band { opacity: 0.22; }
    .sync { fill: #f59e0b; }
    .mark { fill: #64748b; }
    .zero { fill: #22c55e; }
    .one { fill: #ef4444; }
    .raw { fill: transparent; }
    .seg { font: 12px ui-monospace, SFMono-Regular, Menlo, monospace; fill: #0f172a; }
    .tick { font: 13px ui-monospace, SFMono-Regular, Menlo, monospace; fill: #475467; }
    .label { font: 15px -apple-system, BlinkMacSystemFont, "Segoe UI", sans-serif; fill: #172033; }
  </style>
  <rect class="bg" width="1400" height="480"/>
  <text x="40" y="48" class="title">IR RX PA6 Protocol View</text>
  <text x="40" y="82" class="meta">Updated 2026-05-22 14:07:05 | frame=5 | edges=0 | timeouts=35352 | start_level=0 | count=139 | total=130382us (130.382ms)</text>
  <text x="40" y="108" class="meta">decoder: NEC / NEC-like pulse-distance | address=0x79 ~address=0x0A MISMATCH | command=0x20 ~command=0x50 MISMATCH</text>
  <text x="18" y="165" class="label">3.3V</text>
  <text x="30" y="335" class="label">0V</text>
  <line x1="84" y1="160" x2="1368" y2="160" class="grid"/>
  <line x1="84" y1="330" x2="1368" y2="330" class="grid"/>
  <rect x="84.00" y="120" width="88.25" height="230" class="band sync"/><rect x="172.25" y="120" width="44.42" height="230" class="band sync"/><rect x="216.67" y="120" width="5.83" height="230" class="band mark"/><rect x="222.50" y="120" width="16.76" height="230" class="band one"/><rect x="239.26" y="120" width="5.83" height="230" class="band mark"/><rect x="245.09" y="120" width="5.98" height="230" class="band zero"/><rect x="251.07" y="120" width="5.82" height="230" class="band mark"/><rect x="256.89" y="120" width="5.98" height="230" class="band zero"/><rect x="262.87" y="120" width="5.81" height="230" class="band mark"/><rect x="268.68" y="120" width="16.78" height="230" class="band one"/><rect x="285.46" y="120" width="5.81" height="230" class="band mark"/><rect x="291.27" y="120" width="16.74" height="230" class="band one"/><rect x="308.01" y="120" width="5.87" height="230" class="band mark"/><rect x="313.88" y="120" width="16.71" height="230" class="band one"/><rect x="330.59" y="120" width="5.81" height="230" class="band mark"/><rect x="336.40" y="120" width="16.78" height="230" class="band one"/><rect x="353.18" y="120" width="5.81" height="230" class="band mark"/><rect x="359.00" y="120" width="5.98" height="230" class="band zero"/><rect x="364.97" y="120" width="5.82" height="230" class="band mark"/><rect x="370.79" y="120" width="6.00" height="230" class="band zero"/><rect x="376.79" y="120" width="5.81" height="230" class="band mark"/><rect x="382.60" y="120" width="16.77" height="230" class="band one"/><rect x="399.37" y="120" width="5.83" height="230" class="band mark"/><rect x="405.20" y="120" width="5.98" height="230" class="band zero"/><rect x="411.18" y="120" width="5.82" height="230" class="band mark"/><rect x="417.00" y="120" width="16.77" height="230" class="band one"/><rect x="433.77" y="120" width="5.83" height="230" class="band mark"/><rect x="439.60" y="120" width="5.96" height="230" class="band zero"/><rect x="445.56" y="120" width="5.81" height="230" class="band mark"/><rect x="451.37" y="120" width="5.99" height="230" class="band zero"/><rect x="457.36" y="120" width="5.82" height="230" class="band mark"/><rect x="463.18" y="120" width="5.99" height="230" class="band zero"/><rect x="469.16" y="120" width="5.81" height="230" class="band mark"/><rect x="474.97" y="120" width="5.99" height="230" class="band zero"/><rect x="480.96" y="120" width="5.82" height="230" class="band mark"/><rect x="486.78" y="120" width="5.98" height="230" class="band zero"/><rect x="492.76" y="120" width="5.82" height="230" class="band mark"/><rect x="498.58" y="120" width="5.98" height="230" class="band zero"/><rect x="504.56" y="120" width="5.82" height="230" class="band mark"/><rect x="510.38" y="120" width="5.99" height="230" class="band zero"/><rect x="516.37" y="120" width="5.82" height="230" class="band mark"/><rect x="522.19" y="120" width="5.99" height="230" class="band zero"/><rect x="528.17" y="120" width="5.81" height="230" class="band mark"/><rect x="533.98" y="120" width="5.99" height="230" class="band zero"/><rect x="539.97" y="120" width="5.82" height="230" class="band mark"/><rect x="545.79" y="120" width="16.77" height="230" class="band one"/><rect x="562.56" y="120" width="5.82" height="230" class="band mark"/><rect x="568.38" y="120" width="5.98" height="230" class="band zero"/><rect x="574.36" y="120" width="5.83" height="230" class="band mark"/><rect x="580.19" y="120" width="5.99" height="230" class="band zero"/><rect x="586.18" y="120" width="5.82" height="230" class="band mark"/><rect x="592.00" y="120" width="5.99" height="230" class="band zero"/><rect x="597.99" y="120" width="5.81" height="230" class="band mark"/><rect x="603.80" y="120" width="5.98" height="230" class="band zero"/><rect x="609.77" y="120" width="5.81" height="230" class="band mark"/><rect x="615.58" y="120" width="5.99" height="230" class="band zero"/><rect x="621.57" y="120" width="5.81" height="230" class="band mark"/><rect x="627.38" y="120" width="5.97" height="230" class="band zero"/><rect x="633.35" y="120" width="5.81" height="230" class="band mark"/><rect x="639.16" y="120" width="16.78" height="230" class="band one"/><rect x="655.94" y="120" width="5.89" height="230" class="band mark"/><rect x="661.83" y="120" width="5.91" height="230" class="band zero"/><rect x="667.74" y="120" width="5.81" height="230" class="band mark"/><rect x="673.55" y="120" width="16.79" height="230" class="band one"/><rect x="690.34" y="120" width="5.80" height="230" class="band mark"/><rect x="696.14" y="120" width="5.97" height="230" class="band zero"/>
  <line x1="84" y1="352" x2="1368" y2="352" class="axis"/>
  <line x1="84.0" y1="352" x2="84.0" y2="364" class="axis"/><text x="84.0" y="388" text-anchor="middle" class="tick">0.00ms</text><line x1="212.4" y1="352" x2="212.4" y2="364" class="axis"/><text x="212.4" y="388" text-anchor="middle" class="tick">13.04ms</text><line x1="340.8" y1="352" x2="340.8" y2="364" class="axis"/><text x="340.8" y="388" text-anchor="middle" class="tick">26.08ms</text><line x1="469.2" y1="352" x2="469.2" y2="364" class="axis"/><text x="469.2" y="388" text-anchor="middle" class="tick">39.11ms</text><line x1="597.6" y1="352" x2="597.6" y2="364" class="axis"/><text x="597.6" y="388" text-anchor="middle" class="tick">52.15ms</text><line x1="726.0" y1="352" x2="726.0" y2="364" class="axis"/><text x="726.0" y="388" text-anchor="middle" class="tick">65.19ms</text><line x1="854.4" y1="352" x2="854.4" y2="364" class="axis"/><text x="854.4" y="388" text-anchor="middle" class="tick">78.23ms</text><line x1="982.8" y1="352" x2="982.8" y2="364" class="axis"/><text x="982.8" y="388" text-anchor="middle" class="tick">91.27ms</text><line x1="1111.2" y1="352" x2="1111.2" y2="364" class="axis"/><text x="1111.2" y="388" text-anchor="middle" class="tick">104.31ms</text><line x1="1239.6" y1="352" x2="1239.6" y2="364" class="axis"/><text x="1239.6" y="388" text-anchor="middle" class="tick">117.34ms</text><line x1="1368.0" y1="352" x2="1368.0" y2="364" class="axis"/><text x="1368.0" y="388" text-anchor="middle" class="tick">130.38ms</text>
  <path class="wave" d="M84.00,330.00 L172.25,330.00 L172.25,160.00 L216.67,160.00 L216.67,330.00 L222.50,330.00 L222.50,160.00 L239.26,160.00 L239.26,330.00 L245.09,330.00 L245.09,160.00 L251.07,160.00 L251.07,330.00 L256.89,330.00 L256.89,160.00 L262.87,160.00 L262.87,330.00 L268.68,330.00 L268.68,160.00 L285.46,160.00 L285.46,330.00 L291.27,330.00 L291.27,160.00 L308.01,160.00 L308.01,330.00 L313.88,330.00 L313.88,160.00 L330.59,160.00 L330.59,330.00 L336.40,330.00 L336.40,160.00 L353.18,160.00 L353.18,330.00 L359.00,330.00 L359.00,160.00 L364.97,160.00 L364.97,330.00 L370.79,330.00 L370.79,160.00 L376.79,160.00 L376.79,330.00 L382.60,330.00 L382.60,160.00 L399.37,160.00 L399.37,330.00 L405.20,330.00 L405.20,160.00 L411.18,160.00 L411.18,330.00 L417.00,330.00 L417.00,160.00 L433.77,160.00 L433.77,330.00 L439.60,330.00 L439.60,160.00 L445.56,160.00 L445.56,330.00 L451.37,330.00 L451.37,160.00 L457.36,160.00 L457.36,330.00 L463.18,330.00 L463.18,160.00 L469.16,160.00 L469.16,330.00 L474.97,330.00 L474.97,160.00 L480.96,160.00 L480.96,330.00 L486.78,330.00 L486.78,160.00 L492.76,160.00 L492.76,330.00 L498.58,330.00 L498.58,160.00 L504.56,160.00 L504.56,330.00 L510.38,330.00 L510.38,160.00 L516.37,160.00 L516.37,330.00 L522.19,330.00 L522.19,160.00 L528.17,160.00 L528.17,330.00 L533.98,330.00 L533.98,160.00 L539.97,160.00 L539.97,330.00 L545.79,330.00 L545.79,160.00 L562.56,160.00 L562.56,330.00 L568.38,330.00 L568.38,160.00 L574.36,160.00 L574.36,330.00 L580.19,330.00 L580.19,160.00 L586.18,160.00 L586.18,330.00 L592.00,330.00 L592.00,160.00 L597.99,160.00 L597.99,330.00 L603.80,330.00 L603.80,160.00 L609.77,160.00 L609.77,330.00 L615.58,330.00 L615.58,160.00 L621.57,160.00 L621.57,330.00 L627.38,330.00 L627.38,160.00 L633.35,160.00 L633.35,330.00 L639.16,330.00 L639.16,160.00 L655.94,160.00 L655.94,330.00 L661.83,330.00 L661.83,160.00 L667.74,160.00 L667.74,330.00 L673.55,330.00 L673.55,160.00 L690.34,160.00 L690.34,330.00 L696.14,330.00 L696.14,160.00 L702.11,160.00 L702.11,330.00 L707.93,330.00 L707.93,160.00 L713.93,160.00 L713.93,330.00 L719.74,330.00 L719.74,160.00 L736.49,160.00 L736.49,330.00 L742.32,330.00 L742.32,160.00 L748.30,160.00 L748.30,330.00 L754.12,330.00 L754.12,160.00 L952.38,160.00 L952.38,330.00 L957.93,330.00 L957.93,160.00 L974.76,160.00 L974.76,330.00 L980.58,330.00 L980.58,160.00 L986.57,160.00 L986.57,330.00 L992.38,330.00 L992.38,160.00 L998.37,160.00 L998.37,330.00 L1004.19,330.00 L1004.19,160.00 L1010.18,160.00 L1010.18,330.00 L1016.00,330.00 L1016.00,160.00 L1032.76,160.00 L1032.76,330.00 L1038.59,330.00 L1038.59,160.00 L1044.57,160.00 L1044.57,330.00 L1050.39,330.00 L1050.39,160.00 L1056.38,160.00 L1056.38,330.00 L1062.20,330.00 L1062.20,160.00 L1068.19,160.00 L1068.19,330.00 L1074.01,330.00 L1074.01,160.00 L1080.00,160.00 L1080.00,330.00 L1085.81,330.00 L1085.81,160.00 L1091.79,160.00 L1091.79,330.00 L1097.61,330.00 L1097.61,160.00 L1103.60,160.00 L1103.60,330.00 L1109.41,330.00 L1109.41,160.00 L1115.40,160.00 L1115.40,330.00 L1121.22,330.00 L1121.22,160.00 L1127.20,160.00 L1127.20,330.00 L1133.01,330.00 L1133.01,160.00 L1149.80,160.00 L1149.80,330.00 L1155.62,330.00 L1155.62,160.00 L1161.61,160.00 L1161.61,330.00 L1167.43,330.00 L1167.43,160.00 L1173.40,160.00 L1173.40,330.00 L1179.20,330.00 L1179.20,160.00 L1185.19,160.00 L1185.19,330.00 L1191.00,330.00 L1191.00,160.00 L1196.99,160.00 L1196.99,330.00 L1202.80,330.00 L1202.80,160.00 L1208.78,160.00 L1208.78,330.00 L1214.59,330.00 L1214.59,160.00 L1220.58,160.00 L1220.58,330.00 L1226.39,330.00 L1226.39,160.00 L1232.37,160.00 L1232.37,330.00 L1238.19,330.00 L1238.19,160.00 L1244.19,160.00 L1244.19,330.00 L1250.00,330.00 L1250.00,160.00 L1255.99,160.00 L1255.99,330.00 L1261.80,330.00 L1261.80,160.00 L1267.81,160.00 L1267.81,330.00 L1273.62,330.00 L1273.62,160.00 L1279.60,160.00 L1279.60,330.00 L1285.43,330.00 L1285.43,160.00 L1291.42,160.00 L1291.42,330.00 L1297.23,330.00 L1297.23,160.00 L1303.22,160.00 L1303.22,330.00 L1309.03,330.00 L1309.03,160.00 L1315.02,160.00 L1315.02,330.00 L1320.83,330.00 L1320.83,160.00 L1326.82,160.00 L1326.82,330.00 L1332.62,330.00 L1332.62,160.00 L1338.60,160.00 L1338.60,330.00 L1344.41,330.00 L1344.41,160.00 L1350.40,160.00 L1350.40,330.00 L1356.22,330.00 L1356.22,160.00 L1362.19,160.00 L1362.19,330.00 L1368.00,330.00 L1368.00,160.00"/>
  <text x="128.1" y="358.0" class="seg" text-anchor="middle">SYNC mark 8961us</text><text x="194.5" y="146.0" class="seg" text-anchor="middle">SYNC space 4511us</text><text x="853.2" y="146.0" class="seg" text-anchor="middle">20132us</text>
  <text x="40" y="440" class="meta">Color: orange=sync/header, gray=carrier mark, green=bit 0 space, red=bit 1 space.</text>
</svg>